<?xml version="1.0" encoding="utf-8"?>
<!-- Generator: Adobe Illustrator 16.0.0, SVG Export Plug-In . SVG Version: 6.00 Build 0)  -->
<!DOCTYPE svg PUBLIC "-//W3C//DTD SVG 1.1//EN" "http://www.w3.org/Graphics/SVG/1.1/DTD/svg11.dtd">
<svg version="1.1" id="Camada_1" xmlns="http://www.w3.org/2000/svg" xmlns:xlink="http://www.w3.org/1999/xlink" x="0px" y="0px"
	 width="219.819px" height="131.264px" viewBox="40.21 -75.736 219.819 131.264"
	 enable-background="new 40.21 -75.736 219.819 131.264" xml:space="preserve">
<path fill="#009CB4" d="M149.525,37.254c-2.793,0-5.187-0.988-7.162-2.965c-1.977-1.977-2.965-4.369-2.965-7.163
	c0-2.791,0.988-5.178,2.965-7.154c1.977-1.984,4.369-2.973,7.162-2.973c2.79,0,5.177,0.988,7.154,2.973
	c1.983,1.977,2.974,4.361,2.974,7.154c0,2.793-0.99,5.186-2.974,7.163C154.702,36.266,152.315,37.254,149.525,37.254
	 M149.525,35.231c2.239,0,4.146-0.789,5.729-2.373c1.576-1.576,2.369-3.49,2.369-5.729c0-2.24-0.793-4.148-2.369-5.732
	c-1.584-1.576-3.49-2.369-5.729-2.369c-2.242,0-4.156,0.793-5.731,2.369c-1.583,1.584-2.371,3.492-2.371,5.732
	c0,2.239,0.788,4.153,2.371,5.729C145.369,34.442,147.283,35.231,149.525,35.231z M134.432,33.225
	c-0.284,0.367-0.596,0.717-0.935,1.049c-1.983,1.984-4.375,2.98-7.168,2.98s-5.186-0.99-7.161-2.967
	c-1.979-1.977-2.968-4.367-2.968-7.161c0-2.793,0.988-5.18,2.968-7.156c1.977-1.984,4.368-2.971,7.161-2.971
	s5.178,0.986,7.154,2.971c1.983,1.977,2.973,4.363,2.973,7.156v10.125l-2.024-2.023V33.225z M126.33,35.231
	c2.24,0,4.148-0.789,5.73-2.373c1.576-1.576,2.372-3.49,2.372-5.729c0-2.24-0.796-4.148-2.372-5.732
	c-1.582-1.576-3.49-2.369-5.73-2.369c-2.238,0-4.154,0.793-5.729,2.369c-1.584,1.584-2.372,3.492-2.372,5.732
	c0,2.239,0.788,4.153,2.372,5.729C122.175,34.442,124.091,35.231,126.33,35.231z M114.603,35.231h2.026l2.024,2.023h-4.052
	c-2.793,0-5.184-0.988-7.161-2.965c-1.977-1.977-2.965-4.369-2.965-7.163V8.898h2.025V17h10.127v2.025h-10.125v8.102
	c0,2.241,0.787,4.155,2.371,5.731C110.451,34.442,112.365,35.231,114.603,35.231z M93.138,28.145c-1.541,0-2.854-0.547-3.939-1.631
	c-1.086-1.088-1.631-2.4-1.631-3.941c0-1.543,0.545-2.855,1.631-3.939c1.086-1.086,2.398-1.631,3.939-1.631h8.605v2.025h-8.605
	c-0.975,0-1.813,0.352-2.502,1.041c-0.697,0.699-1.044,1.529-1.044,2.504s0.347,1.805,1.044,2.502
	c0.689,0.691,1.527,1.043,2.502,1.043h3.034c1.541,0,2.854,0.541,3.94,1.633c1.086,1.086,1.631,2.4,1.631,3.934
	c0,1.543-0.545,2.855-1.631,3.939c-1.086,1.086-2.399,1.631-3.94,1.631h-8.604v-2.023h8.604c0.976,0,1.805-0.346,2.502-1.045
	c0.698-0.689,1.045-1.527,1.045-2.502c0-0.967-0.347-1.805-1.045-2.496c-0.697-0.697-1.526-1.043-2.502-1.043H93.138L93.138,28.145z
	 M67.476,28.145c0.2,1.803,0.969,3.379,2.309,4.713c1.576,1.584,3.49,2.373,5.731,2.373c2.239,0,4.146-0.789,5.729-2.373
	c0.809-0.809,1.41-1.707,1.804-2.688h2.146c-0.457,1.52-1.293,2.895-2.511,4.104c-1.983,1.984-4.377,2.98-7.168,2.98
	c-2.793,0-5.187-0.99-7.161-2.967c-1.978-1.977-2.966-4.367-2.966-7.161c0-2.793,0.988-5.18,2.966-7.156
	C70.332,17.986,72.723,17,75.516,17c2.791,0,5.179,0.986,7.154,2.971c1.983,1.977,2.973,4.363,2.973,7.156
	c0,0.338-0.014,0.678-0.043,1.016H67.476V28.145z M83.555,26.117c-0.201-1.809-0.976-3.387-2.31-4.721
	c-1.584-1.576-3.49-2.369-5.729-2.369c-2.241,0-4.155,0.793-5.731,2.369c-1.34,1.334-2.107,2.912-2.309,4.721H83.555z
	 M60.423,33.225c-0.281,0.367-0.594,0.717-0.934,1.049c-1.982,1.984-4.375,2.98-7.168,2.98c-2.791,0-5.185-0.99-7.16-2.967
	c-1.978-1.977-2.967-4.367-2.967-7.161c0-2.793,0.989-5.18,2.967-7.156C47.138,17.986,49.531,17,52.322,17
	c2.793,0,5.178,0.986,7.154,2.971c1.985,1.977,2.975,4.363,2.975,7.156v8.102c0,2.791-0.988,5.186-2.975,7.162
	c-1.979,1.977-4.361,2.965-7.154,2.965c-2.791,0-5.178-0.996-7.147-2.979l1.419-1.416c1.574,1.582,3.49,2.369,5.729,2.369
	c2.24,0,4.149-0.787,5.731-2.369c1.576-1.578,2.37-3.494,2.37-5.73V33.225z M122.578,13.998h8.07v1.393h-8.07V13.998z
	 M52.322,19.027c-2.238,0-4.154,0.793-5.729,2.369c-1.584,1.584-2.372,3.492-2.372,5.732c0,2.239,0.788,4.153,2.372,5.729
	c1.573,1.584,3.489,2.373,5.729,2.373c2.239,0,4.148-0.789,5.73-2.373c1.576-1.576,2.37-3.49,2.37-5.729
	c0-2.24-0.794-4.148-2.37-5.732C56.47,19.82,54.561,19.027,52.322,19.027z"/>
<path fill="#575756" d="M249.422,28.145c-1.54,0-2.854-0.547-3.941-1.631c-1.086-1.088-1.632-2.4-1.632-3.941
	c0-1.543,0.546-2.855,1.632-3.939c1.088-1.086,2.401-1.631,3.941-1.631h8.607v2.025h-8.607c-0.977,0-1.813,0.352-2.503,1.041
	c-0.697,0.699-1.043,1.529-1.043,2.504s0.346,1.805,1.043,2.502c0.69,0.691,1.526,1.043,2.503,1.043h3.033
	c1.543,0,2.854,0.541,3.941,1.633c1.084,1.086,1.633,2.4,1.633,3.934c0,1.543-0.549,2.855-1.633,3.939
	c-1.087,1.086-2.398,1.631-3.941,1.631h-8.606v-2.023h8.606c0.975,0,1.805-0.346,2.505-1.045c0.696-0.689,1.043-1.527,1.043-2.502
	c0-0.967-0.347-1.805-1.043-2.496c-0.7-0.697-1.53-1.043-2.505-1.043H249.422L249.422,28.145z M223.76,28.145
	c0.2,1.803,0.967,3.379,2.311,4.713c1.572,1.584,3.488,2.373,5.729,2.373c2.238,0,4.146-0.789,5.729-2.373
	c0.811-0.809,1.412-1.707,1.805-2.688h2.146c-0.459,1.52-1.294,2.895-2.509,4.104c-1.986,1.984-4.38,2.98-7.17,2.98
	c-2.793,0-5.186-0.99-7.162-2.967c-1.979-1.977-2.965-4.367-2.965-7.161c0-2.793,0.986-5.18,2.965-7.156
	c1.979-1.984,4.369-2.971,7.162-2.971c2.79,0,5.179,0.986,7.154,2.971c1.982,1.977,2.973,4.363,2.973,7.156
	c0,0.338-0.016,0.678-0.044,1.016H223.76V28.145z M239.838,26.117c-0.199-1.809-0.975-3.387-2.309-4.721
	c-1.584-1.576-3.49-2.369-5.729-2.369c-2.24,0-4.156,0.793-5.729,2.369c-1.343,1.334-2.108,2.912-2.31,4.721H239.838z
	 M220.073,35.231h2.024l2.026,2.023h-4.051c-2.793,0-5.188-0.988-7.162-2.965c-1.977-1.977-2.965-4.369-2.965-7.163V8.898h2.026V17
	h10.124v2.025h-10.124v8.102c0,2.241,0.786,4.155,2.367,5.731C215.92,34.442,217.834,35.231,220.073,35.231z M205.958,35.231
	c0,2.791-0.989,5.184-2.973,7.162c-1.979,1.977-4.365,2.965-7.154,2.965c-2.795,0-5.18-0.996-7.149-2.979l1.417-1.418
	c1.575,1.582,3.492,2.371,5.732,2.371c2.238,0,4.146-0.789,5.729-2.371c1.576-1.576,2.37-3.492,2.37-5.73v-2.004
	c-0.282,0.365-0.595,0.717-0.933,1.049c-1.983,1.984-4.377,2.979-7.168,2.979c-2.793,0-5.187-0.988-7.162-2.965
	c-1.979-1.977-2.967-4.369-2.967-7.163V17h2.025v10.127c0,2.241,0.79,4.155,2.371,5.731c1.575,1.582,3.492,2.371,5.732,2.371
	c2.238,0,4.146-0.789,5.729-2.371c1.576-1.576,2.37-3.49,2.37-5.731v-8.102L205.954,17v18.231H205.958z M164.575,21.029
	c0.285-0.357,0.603-0.719,0.953-1.07c1.971-1.971,4.355-2.959,7.149-2.959c2.79,0,5.176,0.988,7.153,2.973
	c1.984,1.977,2.974,4.361,2.974,7.154c0,2.793-0.989,5.186-2.974,7.163c-1.979,1.977-4.363,2.965-7.153,2.965
	c-2.794,0-5.185-0.988-7.163-2.965s-2.965-4.369-2.965-7.163V8.898l2.023,2.025v10.105H164.575z M172.677,35.231
	c2.235,0,4.146-0.789,5.729-2.373c1.576-1.576,2.369-3.49,2.369-5.729c0-2.24-0.793-4.148-2.369-5.732
	c-1.584-1.576-3.494-2.369-5.729-2.369c-2.24,0-4.157,0.793-5.731,2.369c-1.582,1.584-2.371,3.492-2.371,5.732
	c0,2.239,0.789,4.153,2.371,5.729C168.52,34.442,170.437,35.231,172.677,35.231z"/>
<path fill="#575756" d="M145.806,48.789c-0.602,0-1.107-0.213-1.529-0.635c-0.423-0.42-0.634-0.932-0.634-1.527
	c0-0.6,0.211-1.109,0.634-1.531c0.422-0.42,0.93-0.633,1.529-0.633h3.339v0.785h-3.339c-0.38,0-0.704,0.137-0.973,0.404
	c-0.271,0.271-0.405,0.594-0.405,0.975c0,0.377,0.136,0.699,0.405,0.971c0.269,0.268,0.593,0.406,0.973,0.406h1.176
	c0.6,0,1.108,0.209,1.53,0.633c0.421,0.42,0.633,0.93,0.633,1.527s-0.212,1.105-0.633,1.527c-0.422,0.422-0.931,0.633-1.53,0.633
	h-3.339v-0.787l3.339,0.002c0.379,0,0.702-0.135,0.973-0.406c0.271-0.27,0.404-0.592,0.404-0.971c0-0.377-0.134-0.701-0.404-0.971
	s-0.594-0.402-0.973-0.402H145.806z M134.289,48.789c0.078,0.699,0.375,1.311,0.896,1.828c0.612,0.615,1.354,0.922,2.226,0.922
	c0.869,0,1.61-0.307,2.225-0.922c0.314-0.313,0.548-0.66,0.701-1.043h0.83c-0.176,0.592-0.502,1.125-0.975,1.594
	c-0.769,0.771-1.697,1.158-2.781,1.158c-1.086,0-2.014-0.385-2.779-1.152c-0.77-0.768-1.152-1.695-1.152-2.781
	c0-1.082,0.383-2.01,1.152-2.777c0.768-0.77,1.693-1.152,2.779-1.152c1.084,0,2.011,0.383,2.777,1.152
	c0.77,0.768,1.153,1.695,1.153,2.777c0,0.133-0.005,0.264-0.017,0.396H134.289L134.289,48.789z M140.531,48.004
	c-0.078-0.705-0.381-1.316-0.897-1.834c-0.613-0.611-1.354-0.92-2.224-0.92c-0.871,0-1.613,0.309-2.227,0.92
	c-0.521,0.518-0.816,1.129-0.895,1.834H140.531z M128.156,48.393v3.934h-0.787v-3.934c0-1.082,0.385-2.01,1.151-2.777
	c0.767-0.77,1.696-1.152,2.78-1.152h1.572l-0.786,0.785H131.3c-0.87,0-1.612,0.309-2.227,0.922
	C128.462,46.783,128.156,47.524,128.156,48.393z M123.494,50.76c-0.109,0.141-0.23,0.279-0.363,0.408
	c-0.768,0.77-1.697,1.156-2.781,1.156c-1.085,0-2.012-0.383-2.779-1.15c-0.768-0.77-1.15-1.697-1.15-2.781
	c0-1.082,0.384-2.01,1.15-2.777c0.769-0.77,1.694-1.154,2.779-1.154c1.084,0,2.012,0.385,2.777,1.154
	c0.77,0.768,1.154,1.695,1.154,2.777v3.932l-0.787-0.787V50.76z M120.348,51.539c0.869,0,1.608-0.307,2.226-0.922
	c0.61-0.609,0.92-1.354,0.92-2.225c0-0.867-0.31-1.609-0.92-2.223c-0.615-0.613-1.355-0.922-2.226-0.922s-1.61,0.309-2.226,0.922
	c-0.613,0.613-0.92,1.354-0.92,2.223c0,0.871,0.307,1.615,0.92,2.225C118.738,51.233,119.479,51.539,120.348,51.539z M107.384,49.18
	v-4.717h0.788v4.717c0,0.648,0.229,1.205,0.692,1.668c0.457,0.461,1.013,0.691,1.664,0.691c0.649,0,1.205-0.23,1.668-0.691
	c0.461-0.463,0.69-1.018,0.69-1.668v-3.932l0.787-0.785v4.717c0,0.871-0.31,1.613-0.92,2.227c-0.615,0.613-1.354,0.92-2.226,0.92
	c-0.873,0-1.613-0.307-2.227-0.92c-0.217-0.215-0.391-0.443-0.525-0.686c-0.14,0.242-0.313,0.471-0.529,0.686
	c-0.612,0.613-1.354,0.92-2.223,0.92s-1.613-0.307-2.225-0.92c-0.615-0.613-0.92-1.355-0.92-2.227v-4.717h0.785v4.717
	c0,0.648,0.23,1.205,0.691,1.668c0.463,0.461,1.019,0.691,1.668,0.691c0.648,0,1.205-0.23,1.666-0.691
	C107.154,50.383,107.384,49.828,107.384,49.18z M99.705,51.539h0.787l0.785,0.787h-1.572c-1.084,0-2.014-0.385-2.78-1.152
	s-1.151-1.695-1.151-2.781v-7.074h0.787v3.145h3.932v0.787H96.56v3.145c0,0.871,0.305,1.613,0.92,2.225
	C98.091,51.233,98.834,51.539,99.705,51.539z M92.061,41.317h1.572l-0.787,0.787h-0.785c-0.868,0-1.612,0.309-2.225,0.92
	c-0.615,0.615-0.921,1.355-0.921,2.225v0.785h3.931v0.787h-3.931v5.504h-0.786v-7.076c0-1.084,0.385-2.01,1.149-2.775
	C90.048,41.705,90.977,41.317,92.061,41.317z M81.471,52.324c-1.084,0-2.013-0.383-2.78-1.15c-0.768-0.77-1.15-1.697-1.15-2.781
	c0-1.082,0.384-2.01,1.15-2.777c0.769-0.77,1.696-1.154,2.78-1.154s2.011,0.385,2.776,1.154c0.771,0.768,1.154,1.695,1.154,2.777
	c0,1.084-0.384,2.012-1.154,2.781C83.482,51.942,82.555,52.324,81.471,52.324z M81.471,51.539c0.87,0,1.61-0.307,2.226-0.922
	c0.611-0.609,0.92-1.354,0.92-2.225c0-0.867-0.309-1.609-0.92-2.223c-0.615-0.613-1.354-0.922-2.226-0.922s-1.612,0.309-2.226,0.922
	c-0.614,0.613-0.92,1.354-0.92,2.223c0,0.871,0.306,1.615,0.92,2.225C79.859,51.233,80.601,51.539,81.471,51.539z M71.906,48.789
	c-0.601,0-1.109-0.213-1.53-0.635c-0.421-0.42-0.634-0.932-0.634-1.527c0-0.6,0.213-1.109,0.634-1.531
	c0.421-0.42,0.931-0.633,1.53-0.633h3.34v0.785h-3.34c-0.377,0-0.703,0.137-0.972,0.404c-0.272,0.271-0.405,0.594-0.405,0.975
	c0,0.377,0.133,0.699,0.405,0.971c0.269,0.268,0.595,0.406,0.972,0.406h1.178c0.598,0,1.107,0.209,1.529,0.633
	c0.42,0.42,0.633,0.93,0.633,1.527s-0.213,1.105-0.633,1.527c-0.422,0.42-0.933,0.633-1.529,0.633h-3.342v-0.787h3.342
	c0.379,0,0.701-0.133,0.972-0.404c0.271-0.268,0.405-0.592,0.405-0.971c0-0.377-0.135-0.701-0.405-0.971s-0.593-0.402-0.972-0.402
	H71.906z"/>
<path fill="#009CB4" d="M153.528-6.654c-3.911,3.908-8.624,5.853-14.155,5.853c-5.532,0.006-10.262-1.945-14.155-5.853l-3.502,3.501
	c4.866,4.9,10.761,7.359,17.657,7.359c6.896,0,12.79-2.441,17.674-7.324c0.593-0.592,1.127-1.207,1.641-1.836l-3.538-3.54
	C154.649-7.86,154.118-7.246,153.528-6.654z M143.326-40.26c0-2.346-1.903-4.251-4.252-4.251c-2.346,0-4.248,1.906-4.248,4.251
	c0,2.349,1.902,4.249,4.248,4.249C141.422-36.01,143.326-37.911,143.326-40.26z M164.155-40.253c0-13.853-11.23-25.09-25.083-25.09
	c-13.849,0-25.074,11.237-25.074,25.09c0,13.856,11.227,25.073,25.074,25.073C152.924-15.18,164.155-26.396,164.155-40.253z
	 M118.877-40.256c0-11.155,9.043-20.205,20.194-20.205c11.16,0,20.202,9.05,20.202,20.205c0,11.161-9.042,20.194-20.202,20.194
	C127.92-20.061,118.877-29.094,118.877-40.256z"/>
<path fill="#575756" d="M184.55-33.109c-2.347,0-4.247,1.905-4.247,4.251c0,2.348,1.9,4.25,4.247,4.25
	c2.351,0,4.252-1.902,4.252-4.25C188.802-31.205,186.901-33.109,184.55-33.109z M184.549-53.941c-8.359,0-15.762,4.1-20.316,10.396
	v-25.23l-4.759-5.139v45.919l0.021,0.002C159.95-14.536,170.989-3.78,184.549-3.78c13.852,0,25.082-11.216,25.082-25.075
	C209.631-42.705,198.401-53.941,184.549-53.941z M184.549-8.661c-11.15,0-20.193-9.033-20.193-20.194
	c0-11.155,9.043-20.206,20.193-20.206c11.16,0,20.202,9.05,20.202,20.206C204.751-17.693,195.709-8.661,184.549-8.661z"/>
</svg>
